Sean-x1369.35.ufo
<glyph name="four" format="1">
  <advance width="690"/>
  <unicode hex="0034"/>
  <outline>
    <contour>
      <point x="82" y="274" type="line"/>
      <point x="468" y="708" type="line"/>
      <point x="453" y="722" type="line"/>
      <point x="66" y="287" type="line"/>
    </contour>
    <contour>
      <point x="661" y="265" type="line"/>
      <point x="661" y="287" type="line"/>
      <point x="66" y="287" type="line"/>
      <point x="66" y="265" type="line"/>
    </contour>
    <contour>
      <point x="453" y="722" type="line"/>
      <point x="453" y="0" type="line"/>
      <point x="475" y="0" type="line"/>
      <point x="475" y="722" type="line"/>
    </contour>
  </outline>
</glyph>
<glyph name="six" format="1">
  <advance width="618"/>
  <unicode hex="0036"/>
  <outline>
    <contour>
      <point x="104" y="242" type="curve"/>
      <point x="104" y="498"/>
      <point x="274" y="639"/>
      <point x="528" y="713" type="curve"/>
      <point x="521" y="734" type="line"/>
      <point x="257" y="658"/>
      <point x="85" y="508"/>
      <point x="85" y="241" type="curve"/>
      <point x="85" y="91"/>
      <point x="168" y="-12"/>
      <point x="312" y="-10" type="curve" smooth="yes"/>
      <point x="438" y="-10"/>
      <point x="515" y="75"/>
      <point x="515" y="203" type="curve" smooth="yes"/>
      <point x="515" y="328"/>
      <point x="437" y="408"/>
      <point x="312" y="408" type="curve" smooth="yes"/>
      <point x="200" y="408"/>
      <point x="131" y="345"/>
      <point x="87" y="240" type="curve"/>
      <point x="102" y="230" type="line"/>
      <point x="143" y="328"/>
      <point x="206" y="387"/>
      <point x="310" y="387" type="curve" smooth="yes"/>
      <point x="422" y="387"/>
      <point x="493" y="315"/>
      <point x="493" y="202" type="curve" smooth="yes"/>
      <point x="493" y="88"/>
      <point x="426" y="13"/>
      <point x="315" y="13" type="curve" smooth="yes"/>
      <point x="182" y="13"/>
      <point x="104" y="105"/>
    </contour>
  </outline>
</glyph>
<glyph name="A" format="1">
  <advance width="654"/>
  <unicode hex="0041"/>
  <outline>
    <contour>
      <point x="504" y="296" type="line"/>
      <point x="170" y="296" type="line"/>
      <point x="161" y="275" type="line"/>
      <point x="511" y="275" type="line"/>
    </contour>
    <contour>
      <point x="333" y="722" type="line"/>
      <point x="602" y="1" type="line"/>
      <point x="625" y="1" type="line"/>
      <point x="355" y="722" type="line"/>
    </contour>
    <contour>
      <point x="333" y="722" type="line"/>
      <point x="31" y="0" type="line"/>
      <point x="55" y="0" type="line"/>
      <point x="355" y="722" type="line"/>
    </contour>
  </outline>
</glyph>
<glyph name="H" format="1">
  <advance width="800"/>
  <unicode hex="0048"/>
  <outline>
    <contour>
      <point x="162" y="722" type="line"/>
      <point x="140" y="722" type="line"/>
      <point x="140" y="0" type="line"/>
      <point x="162" y="0" type="line"/>
    </contour>
    <contour>
      <point x="654" y="373" type="line"/>
      <point x="151" y="373" type="line"/>
      <point x="151" y="351" type="line"/>
      <point x="654" y="351" type="line"/>
    </contour>
    <contour>
      <point x="645" y="0" type="line"/>
      <point x="667" y="0" type="line"/>
      <point x="667" y="722" type="line"/>
      <point x="645" y="722" type="line"/>
    </contour>
  </outline>
</glyph>
<glyph name="J" format="1">
  <advance width="436"/>
  <unicode hex="004A"/>
  <outline>
    <contour>
      <point x="77" y="-168" type="line"/>
      <point x="108" y="-198"/>
      <point x="137" y="-212"/>
      <point x="180" y="-212" type="curve" smooth="yes"/>
      <point x="291" y="-212"/>
      <point x="341" y="-121"/>
      <point x="341" y="0" type="curve" smooth="yes"/>
      <point x="341" y="722" type="line"/>
      <point x="319" y="722" type="line"/>
      <point x="319" y="0" type="line"/>
      <point x="319" y="-108"/>
      <point x="280" y="-191"/>
      <point x="182" y="-191" type="curve" smooth="yes"/>
      <point x="145" y="-191"/>
      <point x="121" y="-178"/>
      <point x="94" y="-152" type="curve"/>
    </contour>
  </outline>
</glyph>
<glyph name="R" format="1">
  <advance width="638"/>
  <unicode hex="0052"/>
  <outline>
    <contour>
      <point x="295" y="354" type="line"/>
      <point x="581" y="0" type="line"/>
      <point x="608" y="0" type="line"/>
      <point x="319" y="359" type="line"/>
    </contour>
    <contour>
      <point x="91" y="722" type="line"/>
      <point x="91" y="0" type="line"/>
      <point x="113" y="0" type="line"/>
      <point x="113" y="722" type="line"/>
    </contour>
    <contour>
      <point x="104" y="701" type="line"/>
      <point x="259" y="701" type="line"/>
      <point x="378" y="701"/>
      <point x="470" y="645"/>
      <point x="470" y="535" type="curve" smooth="yes"/>
      <point x="470" y="420"/>
      <point x="375" y="361"/>
      <point x="251" y="361" type="curve" smooth="yes"/>
      <point x="104" y="361" type="line"/>
      <point x="104" y="339" type="line"/>
      <point x="248" y="339" type="line"/>
      <point x="387" y="339"/>
      <point x="492" y="408"/>
      <point x="492" y="538" type="curve" smooth="yes"/>
      <point x="492" y="659"/>
      <point x="393" y="722"/>
      <point x="263" y="722" type="curve" smooth="yes"/>
      <point x="104" y="722" type="line"/>
    </contour>
  </outline>
</glyph>
<glyph name="f" format="1">
  <advance width="581"/>
  <unicode hex="0066"/>
  <outline>
    <contour>
      <point x="69" y="508" type="line"/>
      <point x="69" y="486" type="line"/>
      <point x="490" y="486" type="line"/>
      <point x="490" y="508" type="line"/>
    </contour>
    <contour>
      <point x="265" y="593" type="line" smooth="yes"/>
      <point x="265" y="709"/>
      <point x="322" y="777"/>
      <point x="418" y="777" type="curve" smooth="yes"/>
      <point x="443" y="777"/>
      <point x="469" y="773"/>
      <point x="496" y="764" type="curve"/>
      <point x="504" y="783" type="line"/>
      <point x="473" y="794"/>
      <point x="443" y="799"/>
      <point x="413" y="799" type="curve" smooth="yes"/>
      <point x="308" y="799"/>
      <point x="242" y="722"/>
      <point x="243" y="593" type="curve" smooth="yes"/>
      <point x="243" y="0" type="line"/>
      <point x="265" y="0" type="line"/>
    </contour>
  </outline>
</glyph>
<glyph name="j" format="1">
  <advance width="363"/>
  <unicode hex="006A"/>
  <outline>
    <contour>
      <point x="40" y="-289" type="line"/>
      <point x="51" y="-290"/>
      <point x="58" y="-292"/>
      <point x="69" y="-292" type="curve" smooth="yes"/>
      <point x="163" y="-292"/>
      <point x="227" y="-229"/>
      <point x="227" y="-135" type="curve" smooth="yes"/>
      <point x="227" y="535" type="line"/>
      <point x="205" y="535" type="line"/>
      <point x="205" y="-135" type="line"/>
      <point x="205" y="-216"/>
      <point x="150" y="-270"/>
      <point x="69" y="-270" type="curve" smooth="yes"/>
      <point x="60" y="-270"/>
      <point x="52" y="-270"/>
      <point x="43" y="-268" type="curve"/>
    </contour>
    <contour>
      <point x="227" y="683" type="line"/>
      <point x="227" y="790" type="line"/>
      <point x="205" y="790" type="line"/>
      <point x="205" y="683" type="line"/>
    </contour>
  </outline>
</glyph>
<glyph name="n" format="1">
  <advance width="618.0"/>
  <unicode hex="006E"/>
  <outline>
    <contour>
      <point x="145.819078947" y="380.640727796" type="line"/>
      <point x="185.188425164" y="445.37942023"/>
      <point x="239.216077303" y="498.208573191"/>
      <point x="328.459806743" y="498.208573191" type="curve" smooth="yes"/>
      <point x="421.902035362" y="498.208573191"/>
      <point x="467.100534539" y="436.96484375"/>
      <point x="467.100534539" y="339.0" type="curve"/>
      <point x="467.100534539" y="0.0" type="line"/>
      <point x="512.0" y="0.0" type="line"/>
      <point x="512.0" y="344.0" type="line"/>
      <point x="512.0" y="466.261307566"/>
      <point x="454.891961349" y="543.0"/>
      <point x="338.0" y="543.0" type="curve" smooth="yes"/>
      <point x="235.369346217" y="543.0"/>
      <point x="166.324115954" y="495.648231908"/>
      <point x="125.0" y="417.0" type="curve"/>
    </contour>
    <contour>
      <point x="159.944695724" y="533.0" type="line"/>
      <point x="118.0" y="533.0" type="line"/>
      <point x="118.0" y="0.0" type="line"/>
      <point x="159.944695724" y="0.0" type="line"/>
    </contour>
  </outline>
</glyph>
<glyph name="AE" format="1">
  <advance width="850"/>
  <unicode hex="00C6"/>
  <outline>
    <contour>
      <point x="374" y="722" type="line"/>
      <point x="31" y="0" type="line"/>
      <point x="55" y="0" type="line"/>
      <point x="396" y="722" type="line"/>
    </contour>
    <contour>
      <point x="394" y="296" type="line"/>
      <point x="182" y="296" type="line"/>
      <point x="173" y="275" type="line"/>
      <point x="401" y="275" type="line"/>
    </contour>
    <component base="E" xOffset="302"/>
  </outline>
</glyph>
<glyph name="v_u" format="1">
  <advance width="534"/>
  <unicode hex="0909"/>
  <outline>
    <contour>
      <point x="184" y="362" type="line"/>
      <point x="327" y="362"/>
      <point x="437" y="298"/>
      <point x="439" y="192" type="curve" smooth="yes"/>
      <point x="441" y="86"/>
      <point x="359" y="20"/>
      <point x="241" y="24" type="curve" smooth="yes"/>
      <point x="169" y="24"/>
      <point x="105" y="59"/>
      <point x="61" y="110" type="curve"/>
      <point x="49" y="94" type="line"/>
      <point x="96" y="36"/>
      <point x="163" y="3"/>
      <point x="239" y="3" type="curve" smooth="yes"/>
      <point x="371" y="-2"/>
      <point x="462" y="74"/>
      <point x="460" y="195" type="curve" smooth="yes"/>
      <point x="458" y="311"/>
      <point x="338" y="379"/>
      <point x="184" y="379" type="curve"/>
    </contour>
    <contour>
      <point x="184" y="383" type="curve"/>
      <point x="184" y="365" type="line"/>
      <point x="329" y="365"/>
      <point x="440" y="432"/>
      <point x="440" y="543" type="curve" smooth="yes"/>
      <point x="440" y="656"/>
      <point x="361" y="720"/>
      <point x="252" y="720" type="curve"/>
      <point x="249" y="700" type="line"/>
      <point x="348" y="700"/>
      <point x="419" y="643"/>
      <point x="418" y="541" type="curve" smooth="yes"/>
      <point x="417" y="443"/>
      <point x="316" y="383"/>
    </contour>
    <component base="component_6" xOffset="251"/>
    <component base="component_6"/>
  </outline>
</glyph>
<glyph name="v_rlu" format="1">
  <advance width="746"/>
  <unicode hex="090C"/>
  <outline>
    <contour>
      <point x="756" y="700" type="line"/>
      <point x="756" y="722" type="line"/>
      <point x="-10" y="722" type="line"/>
      <point x="-10" y="700" type="line"/>
    </contour>
    <contour>
      <point x="509" y="711" type="line"/>
      <point x="509" y="539" type="line"/>
      <point x="531" y="539" type="line"/>
      <point x="531" y="711" type="line"/>
    </contour>
    <contour>
      <point x="271" y="85" type="line"/>
      <point x="159" y="155"/>
      <point x="68" y="226"/>
      <point x="68" y="356" type="curve" smooth="yes"/>
      <point x="68" y="454"/>
      <point x="120" y="529"/>
      <point x="213" y="529" type="curve" smooth="yes"/>
      <point x="284" y="529"/>
      <point x="337" y="502"/>
      <point x="385" y="450" type="curve"/>
      <point x="395" y="466" type="line"/>
      <point x="345" y="521"/>
      <point x="289" y="549"/>
      <point x="215" y="549" type="curve" smooth="yes"/>
      <point x="109" y="549"/>
      <point x="47" y="466"/>
      <point x="47" y="354" type="curve" smooth="yes"/>
      <point x="47" y="218"/>
      <point x="139" y="140"/>
      <point x="258" y="68" type="curve"/>
    </contour>
    <contour>
      <point x="712" y="-7" type="curve"/>
      <point x="703" y="12" type="line"/>
      <point x="667" y="-14"/>
      <point x="636" y="-33"/>
      <point x="591" y="-33" type="curve" smooth="yes"/>
      <point x="529" y="-33"/>
      <point x="484" y="4"/>
      <point x="484" y="64" type="curve" smooth="yes"/>
      <point x="484" y="138"/>
      <point x="547" y="169"/>
      <point x="597" y="223" type="curve" smooth="yes"/>
      <point x="650" y="279"/>
      <point x="698" y="324"/>
      <point x="698" y="401" type="curve" smooth="yes"/>
      <point x="698" y="495"/>
      <point x="621" y="546"/>
      <point x="520" y="546" type="curve" smooth="yes"/>
      <point x="419" y="546"/>
      <point x="315" y="463"/>
      <point x="359" y="257" type="curve"/>
      <point x="377" y="261" type="line"/>
      <point x="339" y="443"/>
      <point x="424" y="526"/>
      <point x="517" y="526" type="curve" smooth="yes"/>
      <point x="608" y="526"/>
      <point x="678" y="481"/>
      <point x="678" y="397" type="curve" smooth="yes"/>
      <point x="678" y="330"/>
      <point x="633" y="292"/>
      <point x="587" y="243" type="curve" smooth="yes"/>
      <point x="531" y="183"/>
      <point x="464" y="146"/>
      <point x="463" y="63" type="curve" smooth="yes"/>
      <point x="463" y="-9"/>
      <point x="515" y="-54"/>
      <point x="589" y="-54" type="curve" smooth="yes"/>
      <point x="638" y="-54"/>
      <point x="673" y="-37"/>
    </contour>
  </outline>
</glyph>
<glyph name="c_gha" format="1">
  <advance width="557"/>
  <unicode hex="0918"/>
  <outline>
    <contour>
      <point x="250" y="432" type="curve"/>
      <point x="250" y="449" type="line"/>
      <point x="114" y="449"/>
      <point x="9" y="393"/>
      <point x="9" y="281" type="curve" smooth="yes"/>
      <point x="9" y="165"/>
      <point x="102" y="115"/>
      <point x="213" y="115" type="curve" smooth="yes"/>
      <point x="308" y="115"/>
      <point x="380" y="154"/>
      <point x="436" y="231" type="curve"/>
      <point x="417" y="239" type="line"/>
      <point x="366" y="170"/>
      <point x="299" y="136"/>
      <point x="211" y="136" type="curve" smooth="yes"/>
      <point x="109" y="136"/>
      <point x="30" y="180"/>
      <point x="30" y="278" type="curve" smooth="yes"/>
      <point x="30" y="380"/>
      <point x="126" y="432"/>
    </contour>
    <contour>
      <point x="250" y="453" type="line"/>
      <point x="147" y="453"/>
      <point x="65" y="484"/>
      <point x="64" y="559" type="curve" smooth="yes"/>
      <point x="63" y="650"/>
      <point x="146" y="700"/>
      <point x="262" y="700" type="curve"/>
      <point x="255" y="714" type="line"/>
      <point x="131" y="714"/>
      <point x="42" y="660"/>
      <point x="42" y="561" type="curve" smooth="yes"/>
      <point x="42" y="473"/>
      <point x="133" y="435"/>
      <point x="250" y="435" type="curve"/>
    </contour>
    <component base="kana" xOffset="284"/>
    <component base="component_6"/>
  </outline>
</glyph>
<glyph name="c_nya" format="1">
  <advance width="683"/>
  <unicode hex="091E"/>
  <outline>
    <contour>
      <point x="529" y="700" type="line"/>
      <point x="529" y="722" type="line"/>
      <point x="-10" y="722" type="line"/>
      <point x="-10" y="700" type="line"/>
    </contour>
    <contour>
      <point x="204" y="179" type="curve"/>
      <point x="349" y="179"/>
      <point x="381" y="288"/>
      <point x="381" y="373" type="curve" smooth="yes"/>
      <point x="381" y="455"/>
      <point x="351" y="559"/>
      <point x="209" y="559" type="curve"/>
      <point x="166" y="559"/>
      <point x="107" y="539"/>
      <point x="57" y="485" type="curve"/>
      <point x="70" y="471" type="line"/>
      <point x="123" y="525"/>
      <point x="170" y="541"/>
      <point x="210" y="541" type="curve" smooth="yes"/>
      <point x="282" y="541"/>
      <point x="359" y="507"/>
      <point x="360" y="373" type="curve" smooth="yes"/>
      <point x="361" y="233"/>
      <point x="279" y="197"/>
      <point x="205" y="197" type="curve" smooth="yes"/>
      <point x="155" y="197"/>
      <point x="75" y="217"/>
      <point x="30" y="292" type="curve"/>
      <point x="19" y="280" type="line"/>
      <point x="66" y="199"/>
      <point x="151" y="179"/>
    </contour>
    <contour>
      <point x="371" y="361" type="line"/>
      <point x="438" y="339"/>
      <point x="495" y="336"/>
      <point x="555" y="364" type="curve"/>
      <point x="552" y="386" type="line"/>
      <point x="489" y="356"/>
      <point x="437" y="360"/>
      <point x="371" y="381" type="curve"/>
    </contour>
    <component base="kana" xOffset="410"/>
  </outline>
</glyph>
<glyph name="c_dha" format="1">
  <advance width="661"/>
  <unicode hex="0927"/>
  <outline>
    <contour>
      <point x="285" y="525" type="line"/>
      <point x="323" y="538"/>
      <point x="338" y="569"/>
      <point x="338" y="610" type="curve" smooth="yes"/>
      <point x="338" y="671"/>
      <point x="290" y="701"/>
      <point x="225" y="701" type="curve" smooth="yes"/>
      <point x="153" y="701"/>
      <point x="106" y="658"/>
      <point x="105" y="587" type="curve" smooth="yes"/>
      <point x="104" y="477"/>
      <point x="220" y="451"/>
      <point x="357" y="451" type="curve"/>
      <point x="357" y="433" type="line"/>
      <point x="208" y="433"/>
      <point x="83" y="464"/>
      <point x="83" y="586" type="curve" smooth="yes"/>
      <point x="83" y="670"/>
      <point x="141" y="721"/>
      <point x="227" y="721" type="curve" smooth="yes"/>
      <point x="303" y="721"/>
      <point x="358" y="683"/>
      <point x="358" y="612" type="curve" smooth="yes"/>
      <point x="358" y="562"/>
      <point x="340" y="525"/>
      <point x="294" y="509" type="curve"/>
    </contour>
    <contour>
      <point x="670" y="700" type="line"/>
      <point x="519" y="700" type="line"/>
      <point x="519" y="722" type="line"/>
      <point x="670" y="722" type="line"/>
    </contour>
    <contour>
      <point x="357" y="433" type="line"/>
      <point x="213" y="433"/>
      <point x="94" y="402"/>
      <point x="93" y="273" type="curve" smooth="yes"/>
      <point x="92" y="171"/>
      <point x="182" y="130"/>
      <point x="297" y="130" type="curve" smooth="yes"/>
      <point x="410" y="130"/>
      <point x="481" y="187"/>
      <point x="524" y="293" type="curve"/>
      <point x="538" y="277" type="line"/>
      <point x="494" y="165"/>
      <point x="415" y="108"/>
      <point x="295" y="108" type="curve" smooth="yes"/>
      <point x="168" y="108"/>
      <point x="71" y="157"/>
      <point x="71" y="271" type="curve" smooth="yes"/>
      <point x="71" y="413"/>
      <point x="200" y="451"/>
      <point x="357" y="451" type="curve"/>
    </contour>
    <contour>
      <point x="519" y="710" type="line"/>
      <point x="541" y="710" type="line"/>
      <point x="541" y="0" type="line"/>
      <point x="519" y="0" type="line"/>
    </contour>
    <contour>
      <point x="505" y="660" type="move" name="DVAnchor3"/>
    </contour>
  </outline>
</glyph>
<glyph name="c_ma" format="1">
  <advance width="552"/>
  <unicode hex="092E"/>
  <outline>
    <contour>
      <point x="561" y="700" type="line"/>
      <point x="561" y="722" type="line"/>
      <point x="-10" y="722" type="line"/>
      <point x="-10" y="700" type="line"/>
    </contour>
    <contour>
      <point x="160" y="273" type="curve"/>
      <point x="160" y="709" type="line"/>
      <point x="140" y="709" type="line"/>
      <point x="140" y="273" type="line"/>
      <point x="140" y="240"/>
      <point x="121" y="218"/>
      <point x="89" y="218" type="curve" smooth="yes"/>
      <point x="60" y="218"/>
      <point x="39" y="231"/>
      <point x="39" y="258" type="curve" smooth="yes"/>
      <point x="39" y="285"/>
      <point x="58" y="302"/>
      <point x="86" y="302" type="curve"/>
      <point x="425" y="302" type="line"/>
      <point x="425" y="322" type="line"/>
      <point x="87" y="322" type="line"/>
      <point x="46" y="322"/>
      <point x="18" y="297"/>
      <point x="18" y="257" type="curve" smooth="yes"/>
      <point x="18" y="219"/>
      <point x="47" y="198"/>
      <point x="88" y="198" type="curve" smooth="yes"/>
      <point x="133" y="198"/>
      <point x="160" y="228"/>
    </contour>
    <component base="kana" xOffset="279"/>
    <contour>
      <point x="447" y="660" type="move" name="DVAnchor3"/>
    </contour>
  </outline>
</glyph>
<glyph name="c_ya" format="1">
  <advance width="579"/>
  <unicode hex="092F"/>
  <outline>
    <contour>
      <point x="385" y="700" type="line"/>
      <point x="385" y="722" type="line"/>
      <point x="-10" y="722" type="line"/>
      <point x="-10" y="700" type="line"/>
    </contour>
    <contour>
      <point x="456" y="250" type="curve" smooth="yes"/>
      <point x="456" y="257"/>
      <point x="443" y="255"/>
      <point x="443" y="262" type="curve" smooth="yes"/>
      <point x="394" y="183"/>
      <point x="306" y="138"/>
      <point x="213" y="138" type="curve" smooth="yes"/>
      <point x="91" y="138"/>
      <point x="-8" y="235"/>
      <point x="-8" y="356" type="curve"/>
      <point x="-19" y="345" type="line"/>
      <point x="117" y="345"/>
      <point x="255" y="400"/>
      <point x="255" y="520" type="curve" smooth="yes"/>
      <point x="255" y="620"/>
      <point x="179" y="703"/>
      <point x="79" y="722" type="curve"/>
      <point x="75" y="702" type="line"/>
      <point x="164" y="683"/>
      <point x="233" y="610"/>
      <point x="233" y="520" type="curve" smooth="yes"/>
      <point x="233" y="412"/>
      <point x="105" y="367"/>
      <point x="-19" y="367" type="curve" smooth="yes"/>
      <point x="-30" y="367" type="line"/>
      <point x="-30" y="356" type="line"/>
      <point x="-30" y="223"/>
      <point x="79" y="116"/>
      <point x="213" y="116" type="curve" smooth="yes"/>
      <point x="312" y="116"/>
      <point x="403" y="167"/>
    </contour>
    <component base="kana" xOffset="306"/>
  </outline>
</glyph>
<glyph name="c_ra" format="1">
  <advance width="423"/>
  <unicode hex="0930"/>
  <outline>
    <contour>
      <point x="433" y="700" type="line"/>
      <point x="433" y="722" type="line"/>
      <point x="-10" y="722" type="line"/>
      <point x="-10" y="700" type="line"/>
    </contour>
    <contour>
      <point x="263" y="718" type="curve"/>
      <point x="247" y="702" type="line"/>
      <point x="313" y="641"/>
      <point x="374" y="568"/>
      <point x="374" y="479" type="curve" smooth="yes"/>
      <point x="374" y="399"/>
      <point x="319" y="325"/>
      <point x="234" y="325" type="curve" smooth="yes"/>
      <point x="185" y="325"/>
      <point x="145" y="350"/>
      <point x="117" y="399" type="curve"/>
      <point x="109" y="415" type="line"/>
      <point x="90" y="406" type="line"/>
      <point x="259" y="2" type="line"/>
      <point x="279" y="12" type="line"/>
      <point x="109" y="414" type="line"/>
      <point x="92" y="406" type="line"/>
      <point x="114" y="340"/>
      <point x="171" y="303"/>
      <point x="234" y="303" type="curve" smooth="yes"/>
      <point x="331" y="303"/>
      <point x="396" y="387"/>
      <point x="396" y="479" type="curve" smooth="yes"/>
      <point x="396" y="574"/>
      <point x="332" y="652"/>
    </contour>
  </outline>
</glyph>
<glyph name="c_lla" format="1">
  <advance width="698"/>
  <unicode hex="0933"/>
  <outline>
    <contour>
      <point x="733" y="700" type="line"/>
      <point x="733" y="722" type="line"/>
      <point x="-10" y="722" type="line"/>
      <point x="-10" y="700" type="line"/>
      <point x="486" y="700" type="line"/>
      <point x="486" y="428" type="line"/>
      <point x="508" y="428" type="line"/>
      <point x="508" y="700" type="line"/>
    </contour>
    <contour>
      <point x="213" y="142" type="curve"/>
      <point x="106" y="142"/>
      <point x="58" y="204"/>
      <point x="58" y="294" type="curve" smooth="yes"/>
      <point x="58" y="372"/>
      <point x="105" y="423"/>
      <point x="202" y="423" type="curve" smooth="yes"/>
      <point x="274" y="423"/>
      <point x="317" y="402"/>
      <point x="368" y="351" type="curve"/>
      <point x="378" y="367" type="line"/>
      <point x="325" y="421"/>
      <point x="279" y="443"/>
      <point x="204" y="443" type="curve" smooth="yes"/>
      <point x="93" y="443"/>
      <point x="37" y="384"/>
      <point x="37" y="292" type="curve" smooth="yes"/>
      <point x="37" y="190"/>
      <point x="92" y="121"/>
      <point x="210" y="121" type="curve"/>
      <point x="311" y="121"/>
      <point x="344" y="187"/>
      <point x="351" y="275" type="curve" smooth="yes"/>
      <point x="358" y="358"/>
      <point x="395" y="418"/>
      <point x="493" y="418" type="curve" smooth="yes"/>
      <point x="590" y="418"/>
      <point x="631" y="361"/>
      <point x="631" y="280" type="curve"/>
      <point x="631" y="191"/>
      <point x="584" y="129"/>
      <point x="479" y="129" type="curve" smooth="yes"/>
      <point x="409" y="129"/>
      <point x="371" y="157"/>
      <point x="320" y="205" type="curve"/>
      <point x="309" y="185" type="line"/>
      <point x="364" y="136"/>
      <point x="403" y="109"/>
      <point x="477" y="109" type="curve" smooth="yes"/>
      <point x="597" y="109"/>
      <point x="653" y="179"/>
      <point x="653" y="284" type="curve"/>
      <point x="653" y="376"/>
      <point x="606" y="440"/>
      <point x="498" y="440" type="curve" smooth="yes"/>
      <point x="385" y="440"/>
      <point x="338" y="371"/>
      <point x="331" y="272" type="curve" smooth="yes"/>
      <point x="326" y="198"/>
      <point x="300" y="142"/>
    </contour>
  </outline>
</glyph>
<glyph name="c_sha" format="1">
  <advance width="627"/>
  <unicode hex="0937"/>
  <outline>
    <contour>
      <point x="499" y="291" type="line"/>
      <point x="131" y="718" type="line"/>
      <point x="113" y="706" type="line"/>
      <point x="485" y="275" type="line"/>
    </contour>
    <component base="c_pa"/>
    <contour>
      <point x="478" y="660" type="move" name="DVAnchor3"/>
    </contour>
  </outline>
</glyph>
<glyph name="c_ga" format="1">
  <advance width="600"/>
  <outline>
    <contour>
      <point x="151" y="268" type="line"/>
      <point x="280" y="308"/>
      <point x="349" y="386"/>
      <point x="349" y="506" type="curve"/>
      <point x="349" y="599"/>
      <point x="281" y="719"/>
      <point x="170" y="722" type="curve"/>
      <point x="172" y="702" type="line"/>
      <point x="265" y="702"/>
      <point x="327" y="594"/>
      <point x="327" y="500" type="curve"/>
      <point x="327" y="387"/>
      <point x="257" y="320"/>
      <point x="132" y="278" type="curve"/>
    </contour>
    <contour>
      <point x="362" y="700" type="line"/>
      <point x="362" y="722" type="line"/>
      <point x="-10" y="722" type="line"/>
      <point x="-10" y="700" type="line"/>
    </contour>
    <component base="kana" xOffset="327"/>
  </outline>
</glyph>
<glyph name="c_na" format="1">
  <advance width="490"/>
  <outline>
    <contour>
      <point x="499" y="700" type="line"/>
      <point x="499" y="722" type="line"/>
    </contour>
    <contour>
      <point x="176" y="347" type="curve" smooth="yes"/>
      <point x="176" y="364" type="line"/>
      <point x="156" y="364" type="line"/>
      <point x="156" y="347" type="line"/>
      <point x="156" y="304"/>
      <point x="136" y="276"/>
      <point x="103" y="276" type="curve" smooth="yes"/>
      <point x="73" y="276"/>
      <point x="52" y="290"/>
      <point x="52" y="319" type="curve" smooth="yes"/>
      <point x="52" y="346"/>
      <point x="71" y="363"/>
      <point x="99" y="363" type="curve"/>
      <point x="363" y="363" type="line"/>
      <point x="363" y="383" type="line"/>
      <point x="100" y="383" type="line"/>
      <point x="59" y="383"/>
      <point x="31" y="358"/>
      <point x="31" y="318" type="curve" smooth="yes"/>
      <point x="31" y="278"/>
      <point x="60" y="256"/>
      <point x="102" y="256" type="curve" smooth="yes"/>
      <point x="148" y="256"/>
      <point x="176" y="292"/>
    </contour>
    <component base="kana" xOffset="217"/>
    <component base="component_6"/>
  </outline>
</glyph>
<glyph name="c_ssa" format="1">
  <advance width="695"/>
  <outline>
    <contour>
      <point x="3" y="317" type="line"/>
      <point x="21" y="314" type="line"/>
      <point x="-34" y="249"/>
      <point x="35" y="215"/>
      <point x="90" y="215" type="curve"/>
      <point x="186" y="215"/>
      <point x="377" y="375"/>
      <point x="373" y="535" type="curve" smooth="yes"/>
      <point x="370" y="705"/>
      <point x="272" y="722"/>
      <point x="223" y="722" type="curve" smooth="yes"/>
      <point x="153" y="722"/>
      <point x="86" y="670"/>
      <point x="86" y="595" type="curve" smooth="yes"/>
      <point x="86" y="534"/>
      <point x="113" y="481"/>
      <point x="238" y="488" type="curve"/>
      <point x="241" y="465" type="line"/>
      <point x="109" y="454"/>
      <point x="62" y="520"/>
      <point x="62" y="595" type="curve" smooth="yes"/>
      <point x="62" y="684"/>
      <point x="141" y="746"/>
      <point x="223" y="746" type="curve" smooth="yes"/>
      <point x="280" y="746"/>
      <point x="394" y="727"/>
      <point x="397" y="535" type="curve" smooth="yes"/>
      <point x="401" y="361"/>
      <point x="192" y="194"/>
      <point x="102" y="194" type="curve"/>
      <point x="-40" y="194"/>
      <point x="-41" y="282"/>
      <point x="13" y="338" type="curve"/>
      <point x="339" y="11" type="line"/>
      <point x="348" y="3" type="line"/>
      <point x="331" y="-14" type="line"/>
    </contour>
    <component base="kana" xOffset="422"/>
  </outline>
</glyph>
<glyph name="component_2" format="1">
  <advance width="630"/>
  <outline>
    <contour>
      <point x="85" y="955" type="line"/>
      <point x="133" y="975"/>
      <point x="175" y="988"/>
      <point x="227" y="988" type="curve"/>
      <point x="376" y="988"/>
      <point x="442" y="850"/>
      <point x="496" y="703" type="curve"/>
      <point x="511" y="718" type="line"/>
      <point x="457" y="869"/>
      <point x="385" y="1008"/>
      <point x="232" y="1008" type="curve"/>
      <point x="175" y="1008"/>
      <point x="127" y="996"/>
      <point x="75" y="973" type="curve"/>
    </contour>
  </outline>
</glyph>
<glyph name="ddadeva_viramadeva_ddadeva" format="1">
  <advance width="561"/>
  <outline>
    <contour>
      <point x="134" y="66" type="line"/>
      <point x="116" y="81" type="line"/>
    </contour>
    <contour>
      <point x="151" y="-153" type="curve"/>
      <point x="103" y="-122"/>
      <point x="68" y="-93"/>
      <point x="68" y="-41" type="curve"/>
      <point x="68" y="14"/>
      <point x="94" y="49"/>
      <point x="134" y="66" type="curve"/>
      <point x="116" y="81" type="line"/>
      <point x="73" y="59"/>
      <point x="46" y="20"/>
      <point x="46" y="-39" type="curve"/>
      <point x="46" y="-102"/>
      <point x="84" y="-141"/>
      <point x="145" y="-175" type="curve"/>
      <point x="325" y="-120"/>
      <point x="486" y="-98"/>
      <point x="486" y="-240" type="curve" smooth="yes"/>
      <point x="486" y="-350"/>
      <point x="392" y="-399"/>
      <point x="271" y="-399" type="curve" smooth="yes"/>
      <point x="170" y="-399"/>
      <point x="103" y="-356"/>
      <point x="34" y="-282" type="curve"/>
      <point x="16" y="-295" type="line"/>
      <point x="90" y="-373"/>
      <point x="159" y="-420"/>
      <point x="267" y="-420" type="curve" smooth="yes"/>
      <point x="404" y="-420"/>
      <point x="507" y="-361"/>
      <point x="507" y="-235" type="curve" smooth="yes"/>
      <point x="505" y="-86"/>
      <point x="338" y="-96"/>
    </contour>
    <component base="c_dda"/>
    <contour>
      <point x="359" y="-113" type="move" name="DVAnchor0"/>
    </contour>
  </outline>
</glyph>
